<svg xmlns="http://www.w3.org/2000/svg" width="20.707" height="18.422" viewBox="0 0 20.707 18.422">
  <path id="heart_fill" data-name="heart fill" d="M19.064,1.8A5.568,5.568,0,0,0,14.922,0a5.209,5.209,0,0,0-3.254,1.123A6.657,6.657,0,0,0,10.353,2.5,6.653,6.653,0,0,0,9.038,1.123,5.208,5.208,0,0,0,5.784,0,5.568,5.568,0,0,0,1.643,1.8,6.473,6.473,0,0,0,0,6.223a7.707,7.707,0,0,0,2.054,5.045,43.791,43.791,0,0,0,5.141,4.825c.712.607,1.52,1.3,2.358,2.028a1.216,1.216,0,0,0,1.6,0c.838-.733,1.646-1.422,2.359-2.029a43.771,43.771,0,0,0,5.141-4.825,7.706,7.706,0,0,0,2.054-5.045A6.472,6.472,0,0,0,19.064,1.8Zm0,0" fill="#f88"/>
</svg>
